# xmcd
#
# Track frame offsets:
#	150
#	22093
#	35896
#	55750
#	67033
#	92146
#	111384
#	122377
#	135614
#	146370
#	158088
#
# Disc length: 2462 seconds
#
# Revision: 1
# Processed by: cddbd v1.5.2PL0 Copyright (c) Steve Scherf et al.
# Submitted via: audiograbber 1.83.01
#
DISCID=9b099c0b
DTITLE=TV Ghost - Mass Dream
DYEAR=2011
DGENRE=garage rock
TTITLE0=Wired Trap
TTITLE1=Sleep Composite
TTITLE2=The Winding Stair
TTITLE3=Cancor
TTITLE4=An Absurd Laceration
TTITLE5=The Inheritors
TTITLE6=Doppleganger
TTITLE7=Subterfuge
TTITLE8=The Degradation Of Film
TTITLE9=Tropes
TTITLE10=Mass Dream
EXTD=
EXTT0=
EXTT1=
EXTT2=
EXTT3=
EXTT4=
EXTT5=
EXTT6=
EXTT7=
EXTT8=
EXTT9=
EXTT10=
PLAYORDER=
